<mxfile host="app.diagrams.net" modified="2024-03-26T09:57:15.174Z" agent="Mozilla/5.0 (Windows NT 10.0; Win64; x64) AppleWebKit/537.36 (KHTML, like Gecko) Chrome/123.0.0.0 Safari/537.36" etag="jaYA9dvMXPW3ngo7DAON" version="24.1.0" type="device">
  <diagram id="C5RBs43oDa-KdzZeNtuy" name="Page-1">
    <mxGraphModel dx="933" dy="1300" grid="1" gridSize="10" guides="1" tooltips="1" connect="1" arrows="1" fold="1" page="1" pageScale="1" pageWidth="827" pageHeight="1169" math="0" shadow="0">
      <root>
        <mxCell id="WIyWlLk6GJQsqaUBKTNV-0" />
        <mxCell id="WIyWlLk6GJQsqaUBKTNV-1" parent="WIyWlLk6GJQsqaUBKTNV-0" />
        <mxCell id="okjTwaiDshSs1CLnBno_-7" style="edgeStyle=orthogonalEdgeStyle;rounded=0;orthogonalLoop=1;jettySize=auto;html=1;exitX=0.5;exitY=1;exitDx=0;exitDy=0;entryX=0.5;entryY=0;entryDx=0;entryDy=0;" edge="1" parent="WIyWlLk6GJQsqaUBKTNV-1" source="okjTwaiDshSs1CLnBno_-0" target="okjTwaiDshSs1CLnBno_-2">
          <mxGeometry relative="1" as="geometry" />
        </mxCell>
        <mxCell id="okjTwaiDshSs1CLnBno_-0" value="Start" style="ellipse;whiteSpace=wrap;html=1;aspect=fixed;" vertex="1" parent="WIyWlLk6GJQsqaUBKTNV-1">
          <mxGeometry x="202.5" y="30" width="80" height="80" as="geometry" />
        </mxCell>
        <mxCell id="okjTwaiDshSs1CLnBno_-8" style="edgeStyle=orthogonalEdgeStyle;rounded=0;orthogonalLoop=1;jettySize=auto;html=1;exitX=0;exitY=0.5;exitDx=0;exitDy=0;entryX=0.5;entryY=0;entryDx=0;entryDy=0;curved=1;" edge="1" parent="WIyWlLk6GJQsqaUBKTNV-1" source="okjTwaiDshSs1CLnBno_-2" target="okjTwaiDshSs1CLnBno_-4">
          <mxGeometry relative="1" as="geometry" />
        </mxCell>
        <mxCell id="okjTwaiDshSs1CLnBno_-9" value="1" style="edgeLabel;html=1;align=center;verticalAlign=middle;resizable=0;points=[];" vertex="1" connectable="0" parent="okjTwaiDshSs1CLnBno_-8">
          <mxGeometry x="0.0179" y="2" relative="1" as="geometry">
            <mxPoint as="offset" />
          </mxGeometry>
        </mxCell>
        <mxCell id="okjTwaiDshSs1CLnBno_-10" style="edgeStyle=orthogonalEdgeStyle;rounded=0;orthogonalLoop=1;jettySize=auto;html=1;exitX=1;exitY=0.5;exitDx=0;exitDy=0;entryX=0.5;entryY=0;entryDx=0;entryDy=0;curved=1;" edge="1" parent="WIyWlLk6GJQsqaUBKTNV-1" source="okjTwaiDshSs1CLnBno_-2" target="okjTwaiDshSs1CLnBno_-3">
          <mxGeometry relative="1" as="geometry" />
        </mxCell>
        <mxCell id="okjTwaiDshSs1CLnBno_-11" value="0" style="edgeLabel;html=1;align=center;verticalAlign=middle;resizable=0;points=[];" vertex="1" connectable="0" parent="okjTwaiDshSs1CLnBno_-10">
          <mxGeometry x="0.0302" relative="1" as="geometry">
            <mxPoint as="offset" />
          </mxGeometry>
        </mxCell>
        <mxCell id="okjTwaiDshSs1CLnBno_-2" value="isWifi" style="rhombus;whiteSpace=wrap;html=1;" vertex="1" parent="WIyWlLk6GJQsqaUBKTNV-1">
          <mxGeometry x="142.5" y="160" width="200" height="90" as="geometry" />
        </mxCell>
        <mxCell id="okjTwaiDshSs1CLnBno_-12" style="edgeStyle=orthogonalEdgeStyle;rounded=0;orthogonalLoop=1;jettySize=auto;html=1;exitX=0.5;exitY=1;exitDx=0;exitDy=0;entryX=1;entryY=0.5;entryDx=0;entryDy=0;curved=1;" edge="1" parent="WIyWlLk6GJQsqaUBKTNV-1" source="okjTwaiDshSs1CLnBno_-3" target="okjTwaiDshSs1CLnBno_-6">
          <mxGeometry relative="1" as="geometry">
            <mxPoint x="262.5000000000001" y="695" as="targetPoint" />
          </mxGeometry>
        </mxCell>
        <mxCell id="okjTwaiDshSs1CLnBno_-3" value="SerialConnection&lt;span style=&quot;color: rgba(0, 0, 0, 0); font-family: monospace; font-size: 0px; text-align: start; text-wrap: nowrap;&quot;&gt;%3CmxGraphModel%3E%3Croot%3E%3CmxCell%20id%3D%220%22%2F%3E%3CmxCell%20id%3D%221%22%20parent%3D%220%22%2F%3E%3CmxCell%20id%3D%222%22%20value%3D%22Start%22%20style%3D%22ellipse%3BwhiteSpace%3Dwrap%3Bhtml%3D1%3Baspect%3Dfixed%3B%22%20vertex%3D%221%22%20parent%3D%221%22%3E%3CmxGeometry%20x%3D%22230%22%20y%3D%22130%22%20width%3D%2280%22%20height%3D%2280%22%20as%3D%22geometry%22%2F%3E%3C%2FmxCell%3E%3C%2Froot%3E%3C%2FmxGraphModel%3E&lt;/span&gt;" style="ellipse;whiteSpace=wrap;html=1;aspect=fixed;" vertex="1" parent="WIyWlLk6GJQsqaUBKTNV-1">
          <mxGeometry x="342.5" y="320" width="100" height="100" as="geometry" />
        </mxCell>
        <mxCell id="okjTwaiDshSs1CLnBno_-13" style="edgeStyle=orthogonalEdgeStyle;rounded=0;orthogonalLoop=1;jettySize=auto;html=1;exitX=0.5;exitY=1;exitDx=0;exitDy=0;entryX=0.5;entryY=0;entryDx=0;entryDy=0;curved=1;" edge="1" parent="WIyWlLk6GJQsqaUBKTNV-1" source="okjTwaiDshSs1CLnBno_-4">
          <mxGeometry relative="1" as="geometry">
            <mxPoint x="87.5" y="440" as="targetPoint" />
          </mxGeometry>
        </mxCell>
        <mxCell id="okjTwaiDshSs1CLnBno_-4" value="CreateServer" style="ellipse;whiteSpace=wrap;html=1;aspect=fixed;" vertex="1" parent="WIyWlLk6GJQsqaUBKTNV-1">
          <mxGeometry x="42.5" y="320" width="90" height="90" as="geometry" />
        </mxCell>
        <mxCell id="okjTwaiDshSs1CLnBno_-30" style="edgeStyle=orthogonalEdgeStyle;rounded=0;orthogonalLoop=1;jettySize=auto;html=1;exitX=0;exitY=1;exitDx=0;exitDy=0;entryX=0.5;entryY=0;entryDx=0;entryDy=0;curved=1;" edge="1" parent="WIyWlLk6GJQsqaUBKTNV-1" source="okjTwaiDshSs1CLnBno_-6" target="okjTwaiDshSs1CLnBno_-24">
          <mxGeometry relative="1" as="geometry" />
        </mxCell>
        <mxCell id="okjTwaiDshSs1CLnBno_-31" style="edgeStyle=orthogonalEdgeStyle;rounded=0;orthogonalLoop=1;jettySize=auto;html=1;exitX=0.5;exitY=1;exitDx=0;exitDy=0;" edge="1" parent="WIyWlLk6GJQsqaUBKTNV-1" source="okjTwaiDshSs1CLnBno_-6" target="okjTwaiDshSs1CLnBno_-22">
          <mxGeometry relative="1" as="geometry" />
        </mxCell>
        <mxCell id="okjTwaiDshSs1CLnBno_-32" style="edgeStyle=orthogonalEdgeStyle;rounded=0;orthogonalLoop=1;jettySize=auto;html=1;exitX=1;exitY=1;exitDx=0;exitDy=0;entryX=0.5;entryY=0;entryDx=0;entryDy=0;curved=1;" edge="1" parent="WIyWlLk6GJQsqaUBKTNV-1" source="okjTwaiDshSs1CLnBno_-6" target="okjTwaiDshSs1CLnBno_-25">
          <mxGeometry relative="1" as="geometry" />
        </mxCell>
        <mxCell id="okjTwaiDshSs1CLnBno_-33" style="edgeStyle=orthogonalEdgeStyle;rounded=0;orthogonalLoop=1;jettySize=auto;html=1;exitX=1;exitY=1;exitDx=0;exitDy=0;entryX=0.5;entryY=0;entryDx=0;entryDy=0;curved=1;" edge="1" parent="WIyWlLk6GJQsqaUBKTNV-1" source="okjTwaiDshSs1CLnBno_-6" target="okjTwaiDshSs1CLnBno_-26">
          <mxGeometry relative="1" as="geometry" />
        </mxCell>
        <mxCell id="okjTwaiDshSs1CLnBno_-34" style="edgeStyle=orthogonalEdgeStyle;rounded=0;orthogonalLoop=1;jettySize=auto;html=1;exitX=1;exitY=1;exitDx=0;exitDy=0;entryX=0.5;entryY=0;entryDx=0;entryDy=0;curved=1;" edge="1" parent="WIyWlLk6GJQsqaUBKTNV-1" source="okjTwaiDshSs1CLnBno_-6" target="okjTwaiDshSs1CLnBno_-27">
          <mxGeometry relative="1" as="geometry" />
        </mxCell>
        <mxCell id="okjTwaiDshSs1CLnBno_-6" value="IDLE" style="ellipse;whiteSpace=wrap;html=1;aspect=fixed;" vertex="1" parent="WIyWlLk6GJQsqaUBKTNV-1">
          <mxGeometry x="190" y="680" width="70" height="70" as="geometry" />
        </mxCell>
        <mxCell id="okjTwaiDshSs1CLnBno_-19" style="edgeStyle=orthogonalEdgeStyle;rounded=0;orthogonalLoop=1;jettySize=auto;html=1;exitX=0.5;exitY=1;exitDx=0;exitDy=0;entryX=0;entryY=0.5;entryDx=0;entryDy=0;curved=1;" edge="1" parent="WIyWlLk6GJQsqaUBKTNV-1" source="okjTwaiDshSs1CLnBno_-15" target="okjTwaiDshSs1CLnBno_-6">
          <mxGeometry relative="1" as="geometry">
            <mxPoint x="192.5000000000001" y="695" as="targetPoint" />
          </mxGeometry>
        </mxCell>
        <mxCell id="okjTwaiDshSs1CLnBno_-20" value="1" style="edgeLabel;html=1;align=center;verticalAlign=middle;resizable=0;points=[];" vertex="1" connectable="0" parent="okjTwaiDshSs1CLnBno_-19">
          <mxGeometry x="-0.0246" y="26" relative="1" as="geometry">
            <mxPoint as="offset" />
          </mxGeometry>
        </mxCell>
        <mxCell id="okjTwaiDshSs1CLnBno_-15" value="isControllerConnected" style="rhombus;whiteSpace=wrap;html=1;" vertex="1" parent="WIyWlLk6GJQsqaUBKTNV-1">
          <mxGeometry x="10" y="440" width="155" height="80" as="geometry" />
        </mxCell>
        <mxCell id="okjTwaiDshSs1CLnBno_-17" style="edgeStyle=orthogonalEdgeStyle;rounded=0;orthogonalLoop=1;jettySize=auto;html=1;exitX=1;exitY=1;exitDx=0;exitDy=0;entryX=1;entryY=0.5;entryDx=0;entryDy=0;curved=1;" edge="1" parent="WIyWlLk6GJQsqaUBKTNV-1" source="okjTwaiDshSs1CLnBno_-15" target="okjTwaiDshSs1CLnBno_-15">
          <mxGeometry relative="1" as="geometry">
            <Array as="points">
              <mxPoint x="126.5" y="530" />
              <mxPoint x="184.5" y="530" />
              <mxPoint x="184.5" y="480" />
            </Array>
          </mxGeometry>
        </mxCell>
        <mxCell id="okjTwaiDshSs1CLnBno_-18" value="0" style="edgeLabel;html=1;align=center;verticalAlign=middle;resizable=0;points=[];" vertex="1" connectable="0" parent="okjTwaiDshSs1CLnBno_-17">
          <mxGeometry x="0.2287" y="6" relative="1" as="geometry">
            <mxPoint as="offset" />
          </mxGeometry>
        </mxCell>
        <mxCell id="okjTwaiDshSs1CLnBno_-36" style="edgeStyle=orthogonalEdgeStyle;rounded=0;orthogonalLoop=1;jettySize=auto;html=1;exitX=0.5;exitY=1;exitDx=0;exitDy=0;entryX=0.5;entryY=0;entryDx=0;entryDy=0;curved=1;" edge="1" parent="WIyWlLk6GJQsqaUBKTNV-1" source="okjTwaiDshSs1CLnBno_-22" target="okjTwaiDshSs1CLnBno_-29">
          <mxGeometry relative="1" as="geometry" />
        </mxCell>
        <mxCell id="okjTwaiDshSs1CLnBno_-22" value="updateSensors" style="ellipse;whiteSpace=wrap;html=1;aspect=fixed;" vertex="1" parent="WIyWlLk6GJQsqaUBKTNV-1">
          <mxGeometry x="172.5" y="790" width="105" height="105" as="geometry" />
        </mxCell>
        <mxCell id="okjTwaiDshSs1CLnBno_-35" style="edgeStyle=orthogonalEdgeStyle;rounded=0;orthogonalLoop=1;jettySize=auto;html=1;exitX=0.5;exitY=1;exitDx=0;exitDy=0;entryX=0;entryY=0.5;entryDx=0;entryDy=0;curved=1;" edge="1" parent="WIyWlLk6GJQsqaUBKTNV-1" source="okjTwaiDshSs1CLnBno_-24" target="okjTwaiDshSs1CLnBno_-29">
          <mxGeometry relative="1" as="geometry" />
        </mxCell>
        <mxCell id="okjTwaiDshSs1CLnBno_-24" value="scanDevice&lt;span style=&quot;color: rgba(0, 0, 0, 0); font-family: monospace; font-size: 0px; text-align: start; text-wrap: nowrap;&quot;&gt;%3CmxGraphModel%3E%3Croot%3E%3CmxCell%20id%3D%220%22%2F%3E%3CmxCell%20id%3D%221%22%20parent%3D%220%22%2F%3E%3CmxCell%20id%3D%222%22%20value%3D%22updateSensors%22%20style%3D%22ellipse%3BwhiteSpace%3Dwrap%3Bhtml%3D1%3Baspect%3Dfixed%3B%22%20vertex%3D%221%22%20parent%3D%221%22%3E%3CmxGeometry%20x%3D%22172.5%22%20y%3D%22790%22%20width%3D%22105%22%20height%3D%22105%22%20as%3D%22geometry%22%2F%3E%3C%2FmxCell%3E%3C%2Froot%3E%3C%2FmxGraphModel%3E&lt;/span&gt;" style="ellipse;whiteSpace=wrap;html=1;aspect=fixed;" vertex="1" parent="WIyWlLk6GJQsqaUBKTNV-1">
          <mxGeometry x="27.5" y="790" width="105" height="105" as="geometry" />
        </mxCell>
        <mxCell id="okjTwaiDshSs1CLnBno_-37" style="edgeStyle=orthogonalEdgeStyle;rounded=0;orthogonalLoop=1;jettySize=auto;html=1;exitX=0.5;exitY=1;exitDx=0;exitDy=0;entryX=0.5;entryY=0;entryDx=0;entryDy=0;curved=1;" edge="1" parent="WIyWlLk6GJQsqaUBKTNV-1" source="okjTwaiDshSs1CLnBno_-25" target="okjTwaiDshSs1CLnBno_-29">
          <mxGeometry relative="1" as="geometry" />
        </mxCell>
        <mxCell id="okjTwaiDshSs1CLnBno_-25" value="setMotor" style="ellipse;whiteSpace=wrap;html=1;aspect=fixed;" vertex="1" parent="WIyWlLk6GJQsqaUBKTNV-1">
          <mxGeometry x="310" y="790" width="105" height="105" as="geometry" />
        </mxCell>
        <mxCell id="okjTwaiDshSs1CLnBno_-38" style="edgeStyle=orthogonalEdgeStyle;rounded=0;orthogonalLoop=1;jettySize=auto;html=1;exitX=0.5;exitY=1;exitDx=0;exitDy=0;entryX=1;entryY=0.5;entryDx=0;entryDy=0;curved=1;" edge="1" parent="WIyWlLk6GJQsqaUBKTNV-1" source="okjTwaiDshSs1CLnBno_-26" target="okjTwaiDshSs1CLnBno_-29">
          <mxGeometry relative="1" as="geometry" />
        </mxCell>
        <mxCell id="okjTwaiDshSs1CLnBno_-26" value="setRgb" style="ellipse;whiteSpace=wrap;html=1;aspect=fixed;fillColor=#f8cecc;strokeColor=#b85450;" vertex="1" parent="WIyWlLk6GJQsqaUBKTNV-1">
          <mxGeometry x="442.5" y="790" width="105" height="105" as="geometry" />
        </mxCell>
        <mxCell id="okjTwaiDshSs1CLnBno_-39" style="edgeStyle=orthogonalEdgeStyle;rounded=0;orthogonalLoop=1;jettySize=auto;html=1;exitX=0.5;exitY=1;exitDx=0;exitDy=0;entryX=1;entryY=0.5;entryDx=0;entryDy=0;curved=1;" edge="1" parent="WIyWlLk6GJQsqaUBKTNV-1" source="okjTwaiDshSs1CLnBno_-27" target="okjTwaiDshSs1CLnBno_-29">
          <mxGeometry relative="1" as="geometry" />
        </mxCell>
        <mxCell id="okjTwaiDshSs1CLnBno_-27" value="setSpeaker" style="ellipse;whiteSpace=wrap;html=1;aspect=fixed;" vertex="1" parent="WIyWlLk6GJQsqaUBKTNV-1">
          <mxGeometry x="580" y="790" width="105" height="105" as="geometry" />
        </mxCell>
        <mxCell id="okjTwaiDshSs1CLnBno_-41" style="edgeStyle=orthogonalEdgeStyle;rounded=0;orthogonalLoop=1;jettySize=auto;html=1;exitX=0.5;exitY=1;exitDx=0;exitDy=0;entryX=0.5;entryY=0;entryDx=0;entryDy=0;" edge="1" parent="WIyWlLk6GJQsqaUBKTNV-1" source="okjTwaiDshSs1CLnBno_-29" target="okjTwaiDshSs1CLnBno_-40">
          <mxGeometry relative="1" as="geometry" />
        </mxCell>
        <mxCell id="okjTwaiDshSs1CLnBno_-29" value="TxCommand" style="ellipse;whiteSpace=wrap;html=1;aspect=fixed;" vertex="1" parent="WIyWlLk6GJQsqaUBKTNV-1">
          <mxGeometry x="237.5" y="940" width="105" height="105" as="geometry" />
        </mxCell>
        <mxCell id="okjTwaiDshSs1CLnBno_-49" style="edgeStyle=orthogonalEdgeStyle;rounded=0;orthogonalLoop=1;jettySize=auto;html=1;exitX=1;exitY=0.5;exitDx=0;exitDy=0;entryX=0.5;entryY=1;entryDx=0;entryDy=0;curved=1;" edge="1" parent="WIyWlLk6GJQsqaUBKTNV-1" source="okjTwaiDshSs1CLnBno_-40" target="okjTwaiDshSs1CLnBno_-48">
          <mxGeometry relative="1" as="geometry" />
        </mxCell>
        <mxCell id="okjTwaiDshSs1CLnBno_-50" value="1" style="edgeLabel;html=1;align=center;verticalAlign=middle;resizable=0;points=[];" vertex="1" connectable="0" parent="okjTwaiDshSs1CLnBno_-49">
          <mxGeometry x="-0.3058" y="2" relative="1" as="geometry">
            <mxPoint x="1" as="offset" />
          </mxGeometry>
        </mxCell>
        <mxCell id="okjTwaiDshSs1CLnBno_-40" value="isControllerDone" style="rhombus;whiteSpace=wrap;html=1;" vertex="1" parent="WIyWlLk6GJQsqaUBKTNV-1">
          <mxGeometry x="400" y="1090" width="210" height="75" as="geometry" />
        </mxCell>
        <mxCell id="okjTwaiDshSs1CLnBno_-45" style="edgeStyle=orthogonalEdgeStyle;rounded=0;orthogonalLoop=1;jettySize=auto;html=1;exitX=0.5;exitY=1;exitDx=0;exitDy=0;entryX=0;entryY=0.5;entryDx=0;entryDy=0;" edge="1" parent="WIyWlLk6GJQsqaUBKTNV-1" source="okjTwaiDshSs1CLnBno_-40" target="okjTwaiDshSs1CLnBno_-40">
          <mxGeometry relative="1" as="geometry">
            <Array as="points">
              <mxPoint x="505" y="1185" />
              <mxPoint x="350" y="1185" />
              <mxPoint x="350" y="1128" />
            </Array>
          </mxGeometry>
        </mxCell>
        <mxCell id="okjTwaiDshSs1CLnBno_-46" value="0" style="edgeLabel;html=1;align=center;verticalAlign=middle;resizable=0;points=[];" vertex="1" connectable="0" parent="okjTwaiDshSs1CLnBno_-45">
          <mxGeometry x="0.311" y="1" relative="1" as="geometry">
            <mxPoint as="offset" />
          </mxGeometry>
        </mxCell>
        <mxCell id="okjTwaiDshSs1CLnBno_-51" style="edgeStyle=orthogonalEdgeStyle;rounded=0;orthogonalLoop=1;jettySize=auto;html=1;exitX=0.5;exitY=0;exitDx=0;exitDy=0;entryX=0.5;entryY=0;entryDx=0;entryDy=0;curved=1;" edge="1" parent="WIyWlLk6GJQsqaUBKTNV-1" source="okjTwaiDshSs1CLnBno_-48" target="okjTwaiDshSs1CLnBno_-6">
          <mxGeometry relative="1" as="geometry" />
        </mxCell>
        <mxCell id="okjTwaiDshSs1CLnBno_-48" value="handleRxBuffer" style="ellipse;whiteSpace=wrap;html=1;aspect=fixed;" vertex="1" parent="WIyWlLk6GJQsqaUBKTNV-1">
          <mxGeometry x="740" y="790" width="105" height="105" as="geometry" />
        </mxCell>
      </root>
    </mxGraphModel>
  </diagram>
</mxfile>
